<svg width="512" height="512" viewBox="0 0 512 512" fill="none" xmlns="http://www.w3.org/2000/svg">
<path d="M443.6 387.1L312.4 255.4L443.9 125.4C449.3 120 449.3 111.2 443.9 105.8L406.5 68.2C403.9 65.6 400.4 64.2 396.7 64.2C393 64.2 389.5 65.7 386.9 68.2L256 197.8L124.9 68.3C122.3 65.7 118.8 64.3 115.1 64.3C111.4 64.3 107.9 65.8 105.3 68.3L68 105.9C62.6 111.3 62.6 120.1 68 125.5L199.5 255.5L68.4 387.1C65.8 389.7 64.3 393.2 64.3 396.9C64.3 400.6 65.7 404.1 68.4 406.7L105.8 444.3C108.5 447 112 448.4 115.6 448.4C119.1 448.4 122.7 447.1 125.4 444.3L256 313.1L386.7 444.2C389.4 446.9 392.9 448.3 396.5 448.3C400 448.3 403.6 447 406.3 444.2L443.7 406.6C446.3 404 447.8 400.5 447.8 396.8C447.7 393.2 446.2 389.7 443.6 387.1Z" fill="white"/>
</svg>
